@startuml
'https://plantuml.com/class-diagram


class BankingAppWithdrawalService

class Account {
deposit(BigDecimal)
withdraw(BigDecimal)
}

class CurrentAccount {
deposit(BigDecimal)
withdraw(BigDecimal)
}

class SavingsAccount {
deposit(BigDecimal)
withdraw(BigDecimal)
}

BankingAppWithdrawalService ..> Account
Account <|-- CurrentAccount
Account <|-- SavingsAccount

@enduml